<svg id="amogus" xmlns="http://www.w3.org/2000/svg" xmlns:xlink="http://www.w3.org/1999/xlink" viewBox="0 0 1000 1000" shape-rendering="geometricPrecision" text-rendering="geometricPrecision" project-id="b1e4c96a4fde4636b41a6c1fa5d5c9ec" export-id="b6555ce687f04b139b2ae6c3783f6cfa" cached="false" width="1000" height="1000"><g id="amogus-u-amogus" transform="matrix(1.212882 0 0 1.213369-105.951931 43.090089)"><path id="amogus-u-outline" d="M812,403.1c25.4-28.3,38.6-63.6,35.9-98.1-3.3-40.9-28.7-80.2-71.7-110.9v0c-5.4-3.8-10.9-7.4-16.5-10.8-5.1-21.3-16-40.4-25.5-54-14.9-21.3-33.9-39.9-52-51.3-33-20.6-69.6-31-101.2-39.2-17.7-4.6-32.5-3.5-45.6-2.7-8.9.6-16.6,1.1-24.8-.1-36.1-5.2-73.4,3.1-108,24.2-30.6,18.6-57.4,46.6-75.5,78.8-24.6,43.7-35.3,92.7-40.8,139.8-7.7,1-16.5,1-25.6,1.1-26.7.2-60,.4-83.6,26.5-20.4,22.5-21.5,52.4-22.2,72.2-2.6,73.8-5.2,150.2-3.3,225.8c1.1,44,6.8,88.9,39.9,119.5c25.6,23.7,58.9,29.8,89,29.8c3.1,0,6.2-.1,9.3-.2c2,19.7,4.2,39.4,6.7,59.1c3.2,25.2,7.1,49.6,20.6,71.8c19.7,32.5,57.4,52.4,96.1,52.4c6.7,0,13.4-.6,20.1-1.8c45.8-8.4,83.5-44.6,93.9-90c4.9-21.7,3.3-43.2,1.9-62.2-.6-8.1-1.2-16.1-1.3-23.6c9.7-.1,21.2-.2,33.6-.4-8,44.4,6.6,91.7,40,120.6c20.3,17.5,47.3,27.1,75.3,27.1c3.8,0,7.6-.2,11.4-.5c30.5-2.8,57.1-16.6,74.8-38.7c19.5-24.4,25.9-53.9,30.7-82c21.8-126.1,28.2-254.7,18.9-382.2h-.5Z"/><path id="amogus-u-color" d="M760.3,495.2c-.2-17.4-.8-34.8-1.6-52.2-20.1,10.1-43.5,18.1-71.4,24.4-26.4,5.9-50.5,8.9-72.8,8.9-20.7,0-39.8-2.6-57.6-7.7-55.8-16.2-102.2-60.3-121.1-115.1-14.7-42.6-12.6-91.2,5.9-133.1c20.1-45.6,69.8-58.9,99.6-66.8c46-12.3,94.2-12.7,139.3-2.2-8.9-10.7-18.9-20-28.1-25.8-26.2-16.4-57.9-25.3-85.5-32.4-8.9-2.3-17.3-1.7-27.9-1s-22.5,1.5-36.6-.5c-53.6-7.8-103.2,33.5-126.6,75-1.2,2.2-2.4,4.3-3.5,6.6-25.9,49.7-31.6,108.7-35.1,165-9.7,155.5-4.8,312.8,14.7,467.4c2.5,19.6,5.1,36.9,12.9,49.8c11,18.1,36,28.7,58.2,24.6c23.3-4.3,44.1-24.2,49.4-47.4c3.1-13.5,1.9-29.1.6-45.6-1.4-18.9-3-40.3,1.8-61.9c2.8-12.4,13.6-21.4,26.3-21.9h.9c.4,0,.7,0,1.1,0c22.6.1,134.9-1.3,189.3-5.8c0,0-27.8,52.9-73.1,59.7-9.6,28-2.3,62,18.4,79.9c11.4,9.8,28.2,14.8,44.9,13.2c15-1.4,28.2-7.9,36.1-17.9c11.2-14.1,15.5-34.8,19.3-56.6c16.2-92.6,23.5-186.7,22.2-280.6ZM278.3,396c.8-20.2,1.8-40.3,3-60.4-7,.4-13.8.4-20.4.5-22,.2-35.9.8-42.5,8.1-6.7,7.3-7.3,24.9-7.7,36.5-.2,6.2-.4,12.4-.7,18.6-2.3,67.2-4.4,136.2-2.6,203.8.8,31.7,4.1,63.3,21.9,79.8c13.3,12.3,33.4,15.4,55.2,14.8-7.9-100.3-10-201.2-6.2-301.7Z" fill="#3f5aa8"/><path id="amogus-s-path1" d="M791.6,322c-2.6,19.5-14.5,39.7-32.9,54.7-19.7,16.2-46.3,27.6-83.8,36-42,9.5-74.6,10.1-102.5,2-38.6-11.2-70.7-41.7-83.8-79.6-10.2-29.4-8.6-63.1,4.2-92.2c1.3-3,3-6,5.7-9.2c7.1-8,21.5-16.6,57-26.1c19.7-5.3,39.8-7.8,59.8-7.8c46.2,0,91.5,13.7,128.2,39.9c39.5,28.1,47.3,55.7,48.4,69.7.4,4.1.3,8.4-.3,12.6Z" fill="#a3d3e3"/><path id="amogus-u-shadow" d="M284.6,697.7c-21.8.6-41.9-2.5-55.2-14.8-17.9-16.5-21.1-48.1-21.9-79.8-1.8-67.6.3-136.6,2.6-203.8c20.2-8.4,44.8-7.1,68.2-3.2-3.8,100.4-1.7,201.3,6.3,301.6ZM760.3,495.2c-15.7,57.9-56.6,109.2-111.7,133-72.2,31.3-164.3,11.1-214.2-49.6-32-38.9-45.6-89.6-54.4-139.2-15.4-87.7-18-177.7-7.7-266.1-25.8,49.7-31.5,108.7-35,165-9.7,155.5-4.8,312.8,14.7,467.4c2.5,19.6,5.1,36.9,12.9,49.8c11,18.1,36,28.7,58.2,24.6c23.3-4.3,44.1-24.2,49.4-47.4c3.1-13.5,1.9-29.1.6-45.6-1.4-18.9-3-40.3,1.8-61.9c2.8-12.4,13.6-21.4,26.3-21.9h.9c.4,0,.7,0,1.1,0c22.6.1,134.9-1.3,189.3-5.8c0,0-27.8,52.9-73.1,59.7-9.6,28-2.3,62,18.4,79.9c11.4,9.8,28.2,14.8,44.9,13.2c15-1.4,28.2-7.9,36.1-17.9c11.2-14.1,15.5-34.8,19.3-56.6c16.2-92.6,23.5-186.7,22.2-280.6Z" opacity="0.5" fill="#666766"/><path id="amogus-s-path2" d="M791.6,322c-2.6,19.5-14.5,39.7-32.9,54.7-19.7,16.2-46.3,27.6-83.8,36-42,9.5-74.6,10.1-102.5,2-38.6-11.2-70.7-41.7-83.8-79.6-10.2-29.4-8.6-63.1,4.2-92.2c1.3-3,3-6,5.7-9.2c7.4,11.1,13,40.2,18.1,48.8c10.8,17.9,26.2,33.3,44.1,44.2c37.8,23,84.3,28,128.2,22.4c35.3-4.5,69.3-15.2,102.7-27.1Z" opacity="0.45" fill="#5b7882"/><path id="amogus-s-path3" d="M614.3,273.7c-7.1-2.6-13.4-8.9-13.7-16.5-.3-11,11.3-18.3,21.7-21.8c29.4-9.9,62.4-8.8,91.1,3c8.2,3.4,17,9,17.8,17.8.9,9.8-9.3,17.6-19.2,18.6-9.8,1-19.5-2.4-29.2-4-22.5-3.7-45.3,11.3-68.5,2.9Z" fill="#fff"/></g><g id="amogus-u-cap" transform="translate(.000001 0.000001)"><path id="amogus-u-body" d="M265.34053,290.473306Q454.898277,211.74838,795.825836,211.74838c9.16178-.000001-8.368886-189.766892-29.958186-188.343004s-298.005105-16.075299-512.200068,60.057453c-14.554583,11.278926-16.989676,91.42386,11.672948,207.010477Z" transform="translate(0 0.000001)" fill="#3d472e" stroke="#000" stroke-width="40"/><path id="amogus-u-front" d="M640.334364,211.748378l157.432115-.000001l142.11658,33.610324q-63.066902,46.350695-150.606786,33.24631t-148.941909-66.856633Z" transform="translate(0 0.000003)" fill="#3d472e" stroke="#000" stroke-width="30" stroke-linejoin="round"/><path id="amogus-u-star" d="M722.562417,170.904211l2.286047-32.423605-20.243079-12.150195l22.09765-2.728129l1.991032-37.925341l16.94686,35.963136l20.819977-3.947121-15.479422,16.437694l10.558717,30.260072-20.392753-15.566267-18.585029,22.079756Z" transform="matrix(1.433198 0.134119-.120057 1.282924-303.541178-150.229287)" fill="#fff" stroke="#000" stroke-width="10" stroke-linecap="round" stroke-linejoin="round"/></g></svg>
